<svg
		viewBox="0 0 2800 2800"
		width="2800"
		height="2800"
		xmlns="http://www.w3.org/2000/svg"
>
	<defs>
		<style type="text/css">
			.st0 {
				fill: #010101;
			}
			.st1 {
				fill: #ffffff;
			}
			path, polyline, rect, text, line {
				fill: black;
			}
			@media (prefers-color-scheme: dark) {
				path, polyline, rect, text, line {
					fill: white;
				}
			}
		</style>
	</defs>
	<rect class="st0" width="2800" height="2800" rx="250"></rect>
	<path
			class="st1"
			d="M 2115.594 471.5 L 714.094 471.5 C 546.064 471.5 409.844 597.35 409.844 752.59 L 409.844 2047.41 C 409.844 2202.65 546.064 2328.5 714.094 2328.5 L 1504.154 2328.5 C 1533.964 2328.5 1558.134 2306.17 1558.134 2278.63 L 1558.134 2233.29 C 1558.134 2205.75 1533.964 2183.42 1504.154 2183.42 L 714.094 2183.42 C 632.784 2183.42 566.874 2122.53 566.874 2047.41 L 566.874 752.59 C 566.874 677.47 632.784 616.58 714.094 616.58 L 2115.594 616.58 C 2196.904 616.58 2262.814 677.47 2262.814 752.59 L 2262.814 2047.41 C 2262.814 2122.53 2196.904 2183.42 2115.594 2183.42 L 2030.404 2183.42 L 1458.784 1624.87 L 1569.244 1624.87 C 1798.554 1624.87 1989.854 1451.55 1989.964 1239.7 C 1990.074 1027.12 1802.914 854.14 1572.854 854.14 L 1006.754 854.14 C 965.924 854.14 925.914 867.82 894.084 892.67 C 859.524 919.65 839.714 955.9 839.714 992.15 L 839.714 1957.64 C 839.714 1986.18 864.764 2009.32 895.654 2009.32 L 960.434 2009.32 C 991.334 2009.32 1016.374 1986.18 1016.374 1957.64 L 1016.374 1017.36 L 1570.204 1017.36 C 1702.894 1017.36 1812.534 1115.63 1813.304 1238.21 C 1814.064 1361.3 1705.904 1461.66 1572.854 1461.66 L 1298.794 1461.66 C 1257.884 1461.66 1219.744 1482.36 1201.414 1516.15 C 1181.174 1553.46 1188.434 1598.09 1219.074 1628.2 L 1910.354 2304.38 C 1926.094 2319.77 1948.004 2328.5 1970.924 2328.5 L 2115.604 2328.5 C 2283.634 2328.5 2419.854 2202.65 2419.854 2047.41 L 2419.854 752.59 C 2419.844 597.35 2283.624 471.5 2115.594 471.5 Z"
	></path>
</svg>
