<svg viewBox="166.2557 138.842 305.668 222.559" width="305.668" height="222.559" xmlns="http://www.w3.org/2000/svg">
    <path d="M 212.978 134.649 C 224.784 122.821 243.926 122.821 255.733 134.649 L 336.352 215.408 C 348.158 227.236 348.158 246.411 336.352 258.238 L 255.733 338.998 C 243.926 350.826 224.784 350.826 212.978 338.998 C 201.172 327.17 201.172 307.996 212.978 296.168 L 268.657 240.392 C 270.624 238.422 270.624 235.225 268.657 233.254 L 212.978 177.479 C 201.172 165.651 201.172 146.475 212.978 134.649 Z" clip-rule="evenodd" fillRule="evenodd" style="fill: rgb(0, 255, 238);" transform="matrix(1, 0, 0, 1, 126.71722412109376, 13.532011032104492)"></path>
    <path d="M 248.944 251.087 C 248.944 234.362 262.479 220.801 279.177 220.801 L 440.416 220.801 C 457.112 220.801 470.647 234.362 470.647 251.087 C 470.647 267.813 457.112 281.373 440.416 281.373 L 279.177 281.373 C 262.479 281.373 248.944 267.813 248.944 251.087 Z" style="fill: rgb(255, 102, 240); transform-origin: 359.796px 251.087px;"></path>
    <path d="M 48.393 134.181 C 60.199 122.353 79.341 122.353 91.148 134.181 L 171.767 214.94 C 183.573 226.768 183.573 245.943 171.767 257.77 L 91.148 338.53 C 79.341 350.358 60.199 350.358 48.393 338.53 C 36.587 326.702 36.587 307.528 48.393 295.7 L 104.072 239.924 C 106.039 237.954 106.039 234.757 104.072 232.786 L 48.393 177.011 C 36.587 165.183 36.587 146.007 48.393 134.181 Z" clip-rule="evenodd" fill="#0066FF" fillRule="evenodd" style="" transform="matrix(1, 0, 0, 1, 126.71722412109376, 13.532011032104492)"></path>
</svg>